<svg width="35" height="34" viewBox="0 0 35 34" fill="none" xmlns="http://www.w3.org/2000/svg">
<g clip-path="url(#clip0_103_32)">
<path d="M13.2499 26.9167C6.16659 29.0417 6.16659 23.375 3.33325 22.6667M23.1666 31.1667V25.6842C23.2197 25.0087 23.1285 24.3296 22.8989 23.6921C22.6693 23.0545 22.3066 22.4732 21.8349 21.9867C26.2833 21.4908 30.9583 19.805 30.9583 12.07C30.9579 10.0921 30.1971 8.19004 28.8333 6.75751C29.479 5.02706 29.4334 3.11434 28.7058 1.41668C28.7058 1.41668 27.0341 0.920847 23.1666 3.51335C19.9196 2.63334 16.4969 2.63334 13.2499 3.51335C9.38242 0.920847 7.71075 1.41668 7.71075 1.41668C6.98312 3.11434 6.93746 5.02706 7.58325 6.75751C6.20927 8.20067 5.44766 10.1199 5.45825 12.1125C5.45825 19.7908 10.1333 21.4767 14.5816 22.0292C14.1155 22.5108 13.756 23.0852 13.5266 23.7149C13.2972 24.3446 13.2029 25.0156 13.2499 25.6842V31.1667" stroke="#1E1E1E" stroke-width="4" stroke-linecap="round" stroke-linejoin="round"/>
</g>
<defs>
<clipPath id="clip0_103_32">
<rect width="34" height="34" fill="white" transform="translate(0.5)"/>
</clipPath>
</defs>
</svg>
